<svg width="127" height="35" viewBox="0 0 127 35" fill="none" xmlns="http://www.w3.org/2000/svg">
<path d="M125.58 8.41003C121.389 12.3966 116.009 14.901 110.26 15.54C109.096 15.6833 107.923 15.7467 106.75 15.73C106.826 13.9564 106.242 12.2175 105.11 10.85C104.686 10.3165 104.156 9.87664 103.554 9.55822C102.951 9.23981 102.29 9.04975 101.61 8.99999C100.13 8.99999 99.53 11 99.56 12.13C99.63 15.13 102.14 16.53 104.86 17.05C104.821 17.2164 104.77 17.3801 104.71 17.54C103.9 19.77 101.54 21.18 99.29 21.86C93.81 23.52 87.29 22.45 81.98 20.8C74.68 18.52 66.25 13.05 58.3 14.4C57.7446 13.1637 57.075 11.9819 56.3 10.87C53.8131 7.37765 50.4361 4.61524 46.52 2.86999C42.7291 1.08984 38.5176 0.399624 34.3568 0.876459C30.196 1.35329 26.2499 2.97832 22.96 5.56994C21.3927 4.74281 19.7056 4.16588 17.96 3.85998C15.8134 3.43203 13.6018 3.44906 11.4621 3.91003C9.32236 4.371 7.29998 5.26617 5.52002 6.54003C3.90426 7.78878 2.58486 9.37955 1.65643 11.1984C0.728007 13.0172 0.213574 15.019 0.150023 17.0601C0.121233 19.0708 0.602881 21.056 1.54999 22.83C2.02999 23.76 3.49001 22.94 3.01001 22.02C2.09474 20.1294 1.72409 18.0211 1.93957 15.9316C2.15505 13.8422 2.94812 11.854 4.22998 10.1899C5.61247 8.42283 7.42199 7.03671 9.4881 6.16198C11.5542 5.28725 13.8089 4.9527 16.04 5.18994C17.979 5.33437 19.8728 5.84685 21.62 6.69995C15.7 12.2999 12.4 21.4699 15.62 29.08C17.2 32.77 21.01 35.6301 25.29 33.93C29.29 32.31 31.56 27.99 32.1 24.05C32.566 20.6907 32.0956 17.2678 30.7405 14.1588C29.3854 11.0498 27.1981 8.37534 24.42 6.43005C26.596 4.74279 29.0937 3.51766 31.76 2.82995C40.13 0.70995 49.48 4.51001 54.41 11.14C55.257 12.2806 55.9874 13.5035 56.59 14.79C55.251 15.1903 53.98 15.7903 52.82 16.5699C49.82 18.5699 46.76 23.47 50.26 26.35C53.43 28.96 58.02 26.35 59.13 23.11C59.808 20.7903 59.7168 18.3136 58.87 16.05C61.1429 15.7516 63.4512 15.8736 65.68 16.41C71 17.65 75.68 20.47 80.88 22.16C85.7704 23.842 90.9547 24.4989 96.11 24.09C99.75 23.72 103.86 22.38 105.75 19.14C106.086 18.5524 106.336 17.9192 106.49 17.26C107.01 17.26 107.49 17.26 108.02 17.26C112.635 17.1288 117.15 15.8834 121.18 13.63C123.191 12.4931 125.052 11.109 126.72 9.51C127.55 8.82 126.35 7.67003 125.58 8.41003ZM30.29 25C29.45 28.92 25.29 34.84 20.36 32.21C16.47 30.13 15.86 24.5801 16.24 20.8101C16.8428 15.6876 19.301 10.9633 23.15 7.53002C25.9529 9.39204 28.1319 12.0527 29.405 15.1676C30.678 18.2824 30.9863 21.7079 30.29 25ZM57.13 23.59C56.13 25.38 52.98 26.7099 51.23 24.9399C49.23 22.9399 51.52 19.64 53.29 18.27C54.4833 17.3763 55.8433 16.7303 57.29 16.37C58.15 18.84 58.37 21.46 57.13 23.6V23.59ZM102.21 14.1999C101.64 13.6499 100.45 11.2 101.73 10.6C102.34 10.34 103.65 11.65 103.95 12.04C104.709 13.0497 105.1 14.2878 105.06 15.55C103.998 15.3971 103.005 14.9304 102.21 14.21V14.1999Z" fill="#E5E5E5"/>
</svg>
