<svg width="127" height="37" viewBox="0 0 127 37" fill="none" xmlns="http://www.w3.org/2000/svg">
<path d="M125.27 8.65991C122.601 10.6545 119.53 12.0453 116.27 12.736C113.01 13.4266 109.639 13.4007 106.39 12.6599C103.223 12.0171 100.248 10.6478 97.7001 8.65991C97.2542 8.26319 96.855 7.81703 96.5101 7.32995C98.0301 5.27995 98.5101 2.52996 96.6001 0.399961C96.4984 0.298898 96.3714 0.227015 96.2324 0.191831C96.0935 0.156647 95.9476 0.159442 95.8101 0.199949C92.8601 1.36995 93.1201 4.61992 94.3701 7.04992C94.4063 7.12203 94.4463 7.19215 94.4901 7.25995C92.9001 8.66995 90.6501 9.15991 88.6501 9.65991C84.8142 10.5551 81.1289 12.0036 77.7101 13.96C74.3142 15.9477 71.2476 18.4509 68.6201 21.3799C67.5905 22.4948 66.6541 23.6921 65.8201 24.9599C64.5901 24.0999 63.2801 23.3699 62.1101 22.6899C58.4194 20.5428 54.5717 18.6775 50.6001 17.1099C45.8431 15.3625 40.9841 13.9065 36.0501 12.7499C33.2901 12.0199 29.9001 10.6299 27.9101 8.35992C28.3388 7.85137 28.6771 7.273 28.9101 6.64996C29.8101 4.22996 28.0501 1.38995 25.3301 1.88995C25.1943 1.9228 25.0702 1.99245 24.9714 2.09124C24.8726 2.19004 24.803 2.31415 24.7701 2.44995C24.4341 4.39303 24.8105 6.39209 25.8301 8.07995C25.1375 8.62243 24.3861 9.08534 23.5901 9.45996C21.23 10.5444 18.6447 11.0484 16.0501 10.9299C10.9601 10.8099 6.05011 9.06994 1.34011 7.18994C0.340112 6.79994 -0.0399417 8.35993 0.910058 8.73993C7.31006 11.3199 14.7601 13.83 21.6801 11.89C23.5218 11.4089 25.2535 10.577 26.7801 9.43994C27.9089 10.7822 29.3098 11.8695 30.8901 12.6299C33.2392 13.672 35.6979 14.4469 38.2201 14.9399C40.8901 15.5799 43.5401 16.31 46.1401 17.18C51.4968 18.9789 56.654 21.3246 61.5301 24.18C62.6501 24.83 63.8801 25.51 65.0001 26.3C64.416 27.4201 63.9983 28.6193 63.7601 29.8599C63.4472 31.278 63.5621 32.7571 64.0901 34.1099C64.5101 35.0599 65.3901 36.42 66.5401 36.41C69.4301 36.41 70.6301 32.4099 70.0401 30.1099C69.5265 28.4379 68.5061 26.9668 67.1201 25.9C67.7234 24.9643 68.3918 24.072 69.1201 23.2299C72.2958 19.5019 76.1812 16.4426 80.5501 14.2299C82.8085 13.0858 85.1817 12.1841 87.6301 11.5399C89.8461 11.1177 92.0021 10.4259 94.0501 9.47992C94.5345 9.21517 94.9874 8.89652 95.4001 8.52997C97.4001 10.94 100.47 12.4499 103.3 13.4399C107.162 14.7803 111.295 15.1457 115.332 14.5037C119.369 13.8617 123.185 12.2322 126.44 9.75995C127.23 9.16995 126.08 7.99991 125.27 8.65991ZM26.9201 6.91992C26.3586 5.83706 26.129 4.61267 26.2601 3.39996C27.9001 3.45996 27.6001 5.71992 26.9201 6.91992ZM67.8201 29.1199C69.0001 30.9599 68.8901 34.12 66.5401 34.8C64.4301 32.8 65.0201 29.95 66.3201 27.39C66.8957 27.8965 67.4002 28.4784 67.8201 29.1199ZM95.8201 1.98993C96.1392 2.59339 96.2916 3.27102 96.2617 3.953C96.2319 4.63499 96.0208 5.29668 95.6501 5.86993C94.8701 4.40993 94.5801 2.79994 95.7801 1.99994L95.8201 1.98993Z" fill="#E5E5E5"/>
</svg>
